<?xml version="1.0" standalone="no"?><!DOCTYPE svg PUBLIC "-//W3C//DTD SVG 1.1//EN" "http://www.w3.org/Graphics/SVG/1.1/DTD/svg11.dtd"><svg class="icon" width="200px" height="200.00px" viewBox="0 0 1024 1024" version="1.1" xmlns="http://www.w3.org/2000/svg"><path fill="#fff" d="M910.121735 625.680853a112.441691 112.441691 0 0 0-71.150509 25.593709l-99.474213-82.582365-34.124944 52.381789 98.791714 78.487372a113.46544 113.46544 0 1 0 105.957952-73.198006zM299.114607 199.11905a93.161098 93.161098 0 0 0 12.28498-1.194373l87.189233 115.001062 56.818032-28.494328-89.748603-111.417943a99.132963 99.132963 0 1 0-66.543642 26.105582zM797.509418 269.24581a112.441691 112.441691 0 0 0 55.62366 15.185601 114.830438 114.830438 0 1 0-96.573593-54.599911l-136.499777 136.499777a142.983517 142.983517 0 1 0 39.584936 40.779308zM426.912524 682.498886l-53.746788 143.83664a99.644837 99.644837 0 1 0 51.187417 26.276207l58.865529-141.789144zM341.600163 540.368493v-56.988657h-151.856002a99.644837 99.644837 0 1 0 8.531236 56.818032z" /></svg>