<?xml version="1.0" standalone="no"?><!DOCTYPE svg PUBLIC "-//W3C//DTD SVG 1.1//EN" "http://www.w3.org/Graphics/SVG/1.1/DTD/svg11.dtd"><svg class="icon" width="200px" height="200.00px" viewBox="0 0 1024 1024" version="1.1" xmlns="http://www.w3.org/2000/svg"><path d="M171.55 752.91l-14.26 4.06c-15.56-54.67 12.46-91.92 13.84-93.7 0-0.01 0.01-0.01 0.01-0.01l29.71-38.47 11.74 9.06-29.71 38.48c-1.03 1.32-24.81 33.2-11.33 80.58z" fill="#372622" /><path d="M127.57 432.28l-15.26-7.84c-1.64-0.85-3.6-0.83-5.23 0.05l-15.11 8.12c-4.1 2.21-8.95-1.25-8.21-5.85l2.74-16.93c0.3-1.83-0.33-3.68-1.66-4.96l-12.4-11.86c-3.36-3.22-1.58-8.9 3.02-9.61l16.95-2.63a5.61 5.61 0 0 0 4.2-3.11l7.45-15.45c2.02-4.19 7.98-4.25 10.08-0.09l7.74 15.31a5.617 5.617 0 0 0 4.26 3.03l17 2.31c4.61 0.63 6.51 6.27 3.2 9.55l-12.17 12.09a5.624 5.624 0 0 0-1.57 4.99l3.06 16.88c0.83 4.58-3.95 8.13-8.09 6z" fill="#F3D860" /><path d="M89.3 437.48c-2 0-3.97-0.61-5.68-1.83a9.72 9.72 0 0 1-3.98-9.55l2.74-16.93c0.07-0.47-0.09-0.94-0.43-1.27l-12.39-11.85c-2.72-2.6-3.7-6.44-2.58-10.03 1.14-3.59 4.15-6.17 7.86-6.74l16.95-2.63c0.47-0.07 0.87-0.37 1.08-0.81l7.43-15.44c1.63-3.39 4.98-5.52 8.73-5.55h0.1c3.72 0 7.07 2.06 8.75 5.39l7.74 15.31c0.21 0.42 0.62 0.71 1.09 0.77l16.99 2.31c3.72 0.51 6.78 3.04 7.98 6.6 1.19 3.57 0.28 7.42-2.39 10.07l-12.17 12.09c-0.34 0.33-0.49 0.8-0.4 1.26l3.06 16.89c0.66 3.7-0.79 7.39-3.82 9.63-3.03 2.23-6.98 2.56-10.31 0.84l-15.26-7.84c-0.41-0.21-0.91-0.22-1.33 0.01l-15.11 8.13a9.9 9.9 0 0 1-4.65 1.17z m19.84-74.26c-0.35-0.08-0.95 0.1-1.29 0.81l-7.44 15.45a9.79 9.79 0 0 1-7.34 5.43l-16.95 2.63c-0.76 0.12-1.05 0.67-1.14 0.98-0.1 0.32-0.18 0.93 0.38 1.46l12.4 11.86a9.835 9.835 0 0 1 2.9 8.65l-2.74 16.94c-0.12 0.76 0.31 1.2 0.58 1.39 0.29 0.2 0.83 0.47 1.5 0.09l15.12-8.13a9.746 9.746 0 0 1 9.12-0.08l15.26 7.84c0.66 0.35 1.22 0.07 1.5-0.12 0.27-0.2 0.7-0.65 0.56-1.41l-3.06-16.88c-0.58-3.17 0.44-6.43 2.75-8.71l12.16-12.09c0.55-0.54 0.46-1.15 0.35-1.46s-0.4-0.86-1.17-0.97l-16.99-2.31a9.81 9.81 0 0 1-7.43-5.3l-7.74-15.31c-0.36-0.65-0.96-0.76-1.29-0.76z" fill="#E7A441" /><path d="M279.44 121.06l-14.09-7.24a5.19 5.19 0 0 0-4.83 0.05l-13.95 7.5c-3.79 2.04-8.27-1.15-7.58-5.4l2.53-15.64c0.27-1.69-0.3-3.4-1.54-4.58L228.53 84.8c-3.11-2.97-1.46-8.22 2.79-8.88l15.66-2.42a5.193 5.193 0 0 0 3.88-2.87l6.88-14.27c1.87-3.87 7.37-3.93 9.31-0.09l7.14 14.14a5.196 5.196 0 0 0 3.93 2.8l15.7 2.13c4.26 0.58 6.01 5.79 2.96 8.82l-11.24 11.16a5.21 5.21 0 0 0-1.45 4.61l2.82 15.59c0.77 4.24-3.65 7.51-7.47 5.54z" fill="#F3D860" /><path d="M244.1 126.19c-1.91 0-3.8-0.59-5.43-1.75a9.287 9.287 0 0 1-3.81-9.13l2.53-15.64a1 1 0 0 0-0.29-0.88l-11.46-10.96c-2.59-2.49-3.54-6.16-2.46-9.59a9.308 9.308 0 0 1 7.51-6.45l15.66-2.42c0.32-0.05 0.6-0.26 0.74-0.54l6.89-14.28a9.329 9.329 0 0 1 8.37-5.31h0.08a9.33 9.33 0 0 1 8.37 5.15l7.15 14.14c0.15 0.29 0.43 0.49 0.76 0.54l15.69 2.13c3.56 0.48 6.49 2.9 7.63 6.31 1.14 3.41 0.27 7.1-2.28 9.63L288.49 98.3c-0.24 0.23-0.34 0.56-0.28 0.89l2.82 15.58c0.64 3.53-0.75 7.06-3.64 9.2-2.89 2.13-6.66 2.45-9.87 0.81l-14.09-7.24a0.988 0.988 0 0 0-0.93 0.01l-13.94 7.5a9.393 9.393 0 0 1-4.46 1.14z m18.32-68.59c-0.29 0-0.68 0.1-0.91 0.57l-6.88 14.27c-1.32 2.78-3.95 4.72-7 5.2l-15.67 2.42a0.94 0.94 0 0 0-0.79 0.69c-0.09 0.27-0.11 0.67 0.26 1.02l11.45 10.96a9.327 9.327 0 0 1 2.76 8.28l-2.53 15.63c-0.08 0.51 0.18 0.81 0.41 0.98 0.23 0.17 0.6 0.31 1.06 0.07l13.94-7.5a9.361 9.361 0 0 1 8.73-0.08l14.09 7.24c0.48 0.24 0.83 0.09 1.06-0.09 0.23-0.17 0.47-0.47 0.38-0.98l-2.82-15.59c-0.55-3.04 0.43-6.15 2.62-8.32l11.25-11.17c0.37-0.36 0.34-0.76 0.25-1.03a0.94 0.94 0 0 0-0.82-0.67l-15.69-2.13a9.381 9.381 0 0 1-7.11-5.07l-7.15-14.14a0.949 0.949 0 0 0-0.89-0.56z" fill="#E7A441" /><path d="M795.26 126.78l-13.9-7.14c-1.5-0.77-3.28-0.75-4.76 0.04l-13.76 7.4c-3.74 2.01-8.15-1.14-7.47-5.32l2.5-15.42c0.27-1.66-0.3-3.35-1.51-4.52l-11.29-10.8c-3.06-2.93-1.44-8.11 2.75-8.75l15.44-2.39c1.66-0.26 3.1-1.32 3.83-2.84l6.78-14.08c1.84-3.82 7.26-3.87 9.18-0.09l7.05 13.95c0.76 1.5 2.21 2.54 3.88 2.76l15.48 2.1c4.2 0.57 5.93 5.71 2.92 8.7l-11.09 11.01a5.135 5.135 0 0 0-1.43 4.54l2.79 15.37c0.74 4.19-3.61 7.42-7.39 5.48z" fill="#F3D860" /><path d="M760.41 131.9c-1.9 0-3.78-0.58-5.4-1.74a9.263 9.263 0 0 1-3.78-9.07l2.49-15.42a0.923 0.923 0 0 0-0.28-0.82l-11.29-10.8c-2.58-2.47-3.52-6.11-2.45-9.51 1.07-3.41 3.93-5.86 7.46-6.41l15.44-2.39c0.29-0.04 0.55-0.24 0.68-0.51l6.8-14.08c1.55-3.21 4.72-5.23 8.28-5.26 3.4-0.25 6.79 1.92 8.4 5.11l7.04 13.94c0.14 0.27 0.41 0.46 0.72 0.51l15.47 2.1c3.53 0.48 6.43 2.87 7.57 6.26 1.14 3.39 0.27 7.05-2.27 9.57l-11.08 11c-0.22 0.22-0.32 0.53-0.26 0.84l2.79 15.36c0.63 3.52-0.75 7.01-3.62 9.14-2.87 2.11-6.62 2.43-9.79 0.8l-13.9-7.14a0.905 0.905 0 0 0-0.86 0.01l-13.77 7.4a9.35 9.35 0 0 1-4.39 1.11z m18.07-67.64c-0.35 0.04-0.66 0.17-0.84 0.52l-6.79 14.08a9.287 9.287 0 0 1-6.94 5.15l-15.45 2.39c-0.38 0.06-0.63 0.27-0.74 0.64-0.11 0.36-0.03 0.68 0.25 0.95l11.29 10.8a9.286 9.286 0 0 1 2.75 8.21l-2.49 15.42c-0.06 0.38 0.07 0.69 0.38 0.91 0.34 0.23 0.66 0.24 0.99 0.06l13.76-7.4c2.67-1.46 5.93-1.48 8.65-0.08l13.9 7.14c0.34 0.18 0.66 0.14 0.98-0.08 0.3-0.23 0.43-0.54 0.36-0.91l-2.79-15.37c-0.54-3.03 0.43-6.11 2.6-8.26l11.08-11c0.28-0.27 0.35-0.6 0.23-0.97a0.867 0.867 0 0 0-0.75-0.62l-15.48-2.1a9.339 9.339 0 0 1-7.06-5.03l-7.04-13.94c-0.19-0.34-0.47-0.51-0.85-0.51z" fill="#E7A441" /><path d="M269.26 285.77c0.02 14.8 0.03 29.59 0.05 44.39 0.01 11.93 15.84 11.93 15.82-0.02-0.02-14.8-0.03-29.59-0.05-44.39-0.01-11.92-15.84-11.92-15.82 0.02z" fill="#FFFFFF" /><path d="M272.969 354.77a5.97 3.51 90 1 0 7.02 0 5.97 3.51 90 1 0-7.02 0Z" fill="#FFFFFF" /><path d="M276.85 363.32c-3.64 0-6.39-3.79-6.39-8.83-0.01-5.04 2.73-8.85 6.37-8.85s6.39 3.8 6.39 8.84c0.01 5.04-2.73 8.84-6.37 8.84z m-0.01-11.61c-0.29 0.49-0.64 1.44-0.63 2.77 0 1.34 0.35 2.27 0.64 2.77 0.29-0.5 0.64-1.44 0.63-2.77 0-1.33-0.35-2.27-0.64-2.77z" fill="#FFFFFF" /><path d="M670.73 891.57c10.22 16.14 14.85 37.62 9.28 56.1-5.06 16.79-19.51 28.17-31.45 40.13-12.66 12.68-32.34-6.95-19.68-19.64 7.11-7.13 16.29-14.09 21.66-22.62 7.69-12.23 3.48-28.39-3.81-39.92-9.59-15.15 14.45-29.15 24-14.05z" fill="#F3D860" /><path d="M659.49 893.92c9.55 15.1 14.11 35.22 8.81 52.53-4.87 15.88-18.94 26.75-30.26 38.09-8.44 8.45-21.56-4.64-13.12-13.09 7.34-7.36 16.28-14.42 22.02-23.09 9.03-13.63 4.82-31.99-3.45-45.06-6.4-10.11 9.63-19.44 16-9.38z" fill="#EAA642" /><path d="M601.8 859.28s1.7 9.5 2.36 23.31c0.46 9.61 8.62 17.05 18.24 17.04l74.23-0.08c12.45-0.01 20.53-13.13 14.93-24.26l-13.37-16.12-96.39 0.11z" fill="#3F6FAE" /><path d="M622.38 903.83c-11.99 0-21.83-9.23-22.4-21.03-0.65-13.35-2.29-22.7-2.31-22.79l-0.88-4.92 103.36-0.09 15.15 18.43c3.29 6.53 2.96 14.14-0.88 20.36-3.83 6.23-10.48 9.95-17.79 9.96l-74.23 0.07c-0.01 0.01-0.01 0.01-0.02 0.01z m-15.72-40.37c0.56 4.2 1.29 10.82 1.68 18.93 0.36 7.33 6.53 13.06 14.04 13.06h0.02l74.22-0.07a12.49 12.49 0 0 0 10.67-5.97c2.22-3.61 2.48-8 0.72-11.82l-11.79-14.22-89.56 0.09z" fill="#231815" /><path d="M698.94 859.2s-54.21-5.48-75.74 38.07c0 0 3.98 0.39 12.2 0.38l63.09-0.1s18.63-1.44 14.2-20.4a0.564 0.564 0 0 0-0.04-0.12l-13.71-17.83z" fill="#203462" /><path d="M337.81 891.38c-10.18 16.16-14.77 37.65-9.16 56.12 5.09 16.78 19.57 28.13 31.53 40.07 12.68 12.66 32.33-7.02 19.64-19.68-7.13-7.11-16.32-14.06-21.71-22.57-7.72-12.21-3.54-28.39 3.73-39.92 9.56-15.2-14.5-29.14-24.03-14.02z" fill="#F3D860" /><path d="M349.07 893.71c-9.52 15.12-14.04 35.25-8.7 52.55 4.9 15.87 19 26.71 30.34 38.02 8.45 8.44 21.55-4.68 13.09-13.12-7.36-7.34-16.31-14.38-22.07-23.04-9.06-13.61-4.88-31.98 3.36-45.07 6.37-10.13-9.68-19.42-16.02-9.34z" fill="#EAA642" /><path d="M406.69 858.95s-1.68 9.5-2.32 23.32c-0.44 9.61-8.58 17.07-18.2 17.08l-74.23 0.08c-12.45 0.01-20.56-13.09-14.98-24.23l13.33-16.15 96.4-0.1z" fill="#3F6FAE" /><path d="M311.94 903.62c-7.31 0-13.97-3.71-17.81-9.93-3.84-6.22-4.18-13.83-0.91-20.36l0.52-0.79 14.58-17.68 103.36-0.11-0.87 4.92c-0.02 0.09-1.64 9.44-2.26 22.79-0.54 11.81-10.37 21.07-22.38 21.08l-74.21 0.08h-0.02z m-11.43-26.14c-1.75 3.83-1.49 8.2 0.74 11.81 2.31 3.73 6.3 5.95 10.69 5.95h0.01l74.21-0.08c7.53-0.01 13.69-5.76 14.03-13.09 0.37-8.11 1.09-14.74 1.64-18.93l-89.56 0.09-11.76 14.25z" fill="#231815" /><path d="M310.64 860.94s51.98-5.36 72.72 36.36c0 0-3.81 0.38-11.7 0.39l-60.51 0.03s-17.87-1.34-13.66-19.54c0.01-0.04 0.02-0.08 0.04-0.11l13.11-17.13z" fill="#203462" /><path d="M195.743 692.12l630.77-0.66 0.035 33.88-630.77 0.66z" fill="#F3D860" /><path d="M195.78 726.94l-0.55-520.04c-0.01-6.97 5.52-12.62 12.34-12.63l470.35-0.49c81.77-0.09 148.14 67.55 148.22 151.08l0.4 385.47" fill="#E0BA19" /><path d="M234.62 708.48l-0.49-464.01c-0.01-5.83 4.71-10.56 10.54-10.56l401.87-0.42c69.87-0.07 126.57 56.51 126.64 126.38l0.37 351.44" fill="#F3D860" /><path d="M615.02 164.93c-10.01 18.21-92.85 38.64-100.12-49.37-0.45-5.48-4.42-10.06-9.85-11.45-8.59-2.2-21.17-1.68-34.97 4.38-4.4 1.93-15 2.65-19.57 1.15-17.47-5.73-58.38-15.83-78.29 49.04-0.26 0.85-0.45 1.7-0.58 2.57-1.76 12.26-11.25 103.77 94.28 118.69 0 0 181.73 20.62 158.3-110.5-0.74-4.13-7.16-8.2-9.2-4.51z" fill="#E6B049" /><path d="M605.02 159.64c-11.89-11.57-42.53-35.9-77.23-20.2-3.12 1.41-4.27 5.2-2.42 8.04 8.06 12.43 32.58 41.14 77.96 21.1 3.57-1.58 4.47-6.23 1.69-8.94zM439.62 206.33s12.16 36.33 62.09 45.55M420.28 130.32s-15.51 29.1 5.1 67.56M401.61 204.17s3.23 24.16 33.87 45.16" fill="#E6B049" /><path d="M608.73 153.14c-9.8 18.21-90.89 38.64-98.01-49.37-0.44-5.48-4.32-10.06-9.64-11.45-8.41-2.2-20.73-1.68-34.23 4.38-4.31 1.93-14.69 2.65-19.16 1.15-17.1-5.73-57.14-15.83-76.64 49.04-0.25 0.85-0.45 1.7-0.57 2.57-1.72 12.26-11.01 103.77 92.29 118.69 0 0 177.89 20.62 154.95-110.49-0.71-4.14-7-8.21-8.99-4.52z" fill="#CF7D2C" /><path d="M616.56 145.77c-9.8 18.21-90.89 38.64-98.01-49.37-0.44-5.48-4.32-10.06-9.64-11.45-8.41-2.2-20.73-1.68-34.23 4.38-4.31 1.93-14.69 2.65-19.16 1.15-17.1-5.73-57.14-15.83-76.64 49.04-0.25 0.85-0.45 1.7-0.57 2.57-1.72 12.26-11.01 103.77 92.29 118.69 0 0 177.89 20.62 154.95-110.49-0.72-4.15-7-8.22-8.99-4.52z" fill="#F3D860" /><path d="M604.97 146.54c-11.64-11.57-41.63-35.9-75.6-20.21-3.06 1.41-4.18 5.2-2.37 8.04 7.89 12.43 31.89 41.14 76.31 21.11 3.5-1.58 4.39-6.23 1.66-8.94z" fill="#CF7D2C" /><path d="M593.4 152c-8.39-8.34-30.01-25.88-54.51-14.57a4.018 4.018 0 0 0-1.71 5.8c5.69 8.96 22.99 29.67 55.02 15.22 2.53-1.14 3.17-4.49 1.2-6.45z" fill="#E7A441" /><path d="M423.21 87.33c-11.11 11.92-17.51 26.29-19.51 41.32-0.87 7.56-0.67 15.24 0.22 23 0.41 3.88 1.32 7.72 1.85 11.68 0.87 3.88 1.87 7.75 2.54 11.84-2.18-3.44-4.12-7.05-6-10.73-1.4-3.84-3.12-7.65-4.07-11.7-2.15-8.05-2.75-16.56-1.89-25.02 1.22-8.4 4-16.66 8.66-23.72 4.56-7.06 10.76-13.14 18.2-16.67zM485.29 85.6c-11.15 10.64-20.01 19.92-25.96 31-2.9 5.5-5.64 11.19-7.34 17.61-1.21 3.13-1.72 6.5-2.73 9.93-0.92 3.47-1.34 7.03-2.65 10.88a50.195 50.195 0 0 1-4.62-10.68c-0.67-3.77-1.82-7.69-1.55-11.67-0.31-7.99 2.06-16.14 5.95-23.3 3.94-7.19 9.79-13.24 16.55-17.4 6.8-4.06 14.44-6.74 22.35-6.37z" fill="#BF7C2F" /><path d="M470.85 90.48c-9.11 8.19-16.77 16.8-21.05 27.01-2.22 5.02-3.67 10.41-4.13 16.06-0.74 5.66-0.24 11.46-0.13 17.7-3.06-5.31-5.32-11.36-5.66-17.75-0.72-6.38 0.62-12.98 3.12-18.95 2.62-5.95 6.54-11.28 11.39-15.37 4.82-4.09 10.39-7.29 16.46-8.7zM624.04 148.52c5.28 2.31 7.79 8.35 9.6 13.5 1.84 5.4 2.58 10.98 3.23 16.53 0.27 2.77 0.39 5.56 0.42 8.32 0.06 2.68 0.14 5.62-0.19 8.72-0.5 6.09-2.27 12.11-4.93 17.77-2.71 5.64-6.41 10.94-11.06 15.38-4.72 4.63-9.94 7.86-15.29 10.71-10.86 5.68-23.07 8.38-35 8.8-11.99 0.22-23.57-1.62-34.63-5.13l-4.2-1.36c-1.98-0.72-2.88-1.18-4.3-1.79-2.59-1.14-5.09-2.4-7.57-3.7-4.97-2.56-9.77-5.42-14.43-8.51-9.31-6.18-17.98-13.62-25.19-22.47-6.95-8.84-12.46-20.1-11.44-31.17 4.01 10.17 11.03 17.51 19.13 23.41 7.95 6.06 16.97 10.71 26.1 14.99 4.59 2.1 9.26 4.07 13.96 5.9l7.06 2.59c1.05 0.36 2.6 0.92 3.15 1.02l3.47 0.79c9.37 2.23 19.03 3.42 28.28 3.22 9.26-0.27 18.27-2 26.59-5.53 8.63-3.65 15.2-8.23 20.33-15.64 2.57-3.57 4.5-7.66 6-11.99 1.43-4.13 2.23-9.76 3.16-14.64a97.56 97.56 0 0 0 1.48-15.21c0.08-2.57-0.17-5.06-0.62-7.56-0.5-2.47-1.2-5.03-3.11-6.95z" fill="#EAA642" /><path d="M521.54 115.24c4.79 7.32 9.25 14.02 14.05 20.02 4.77 6 9.9 11.13 15.59 14.95 5.66 3.86 11.99 6.5 19.31 7.51 3.59 0.98 7.46 0.79 11.46 1.23 4.02 0.22 8.09-0.21 12.62 0.26-3.42 2.64-7.18 5.03-11.22 6.89-4.2 1.29-8.46 3.23-13.15 3.28-9.2 1.2-19.36-1.36-27.26-6.86-8.02-5.4-13.83-13.18-17.36-21.39-3.43-8.3-5.24-17.09-4.04-25.89zM485.32 115.28c3.46 12.09 8.42 23.51 14.23 34.24 5.97 10.65 13.25 20.48 22.12 28.53 4.22 4.32 9.32 7.48 14.22 10.94 5.33 2.73 10.52 5.84 16.34 7.61 11.32 4.51 23.62 5.95 36.16 7.38-3.11 0.35-6.25 0.63-9.41 0.82-3.15 0.11-6.36 0.72-9.52 0.29-6.33-0.59-12.82-0.89-18.97-2.98-6.41-1.24-12.14-4.42-18.11-7.05-5.46-3.53-11.05-6.98-15.72-11.55-9.54-8.86-17.08-19.7-22.26-31.42-5.22-11.69-8.45-24.21-9.08-36.81z" fill="#FFFFFF" /><path d="M619.4 144.34c2.87-0.4 5.55 1.87 7.32 4.1 1.82 2.37 2.93 5.05 3.96 7.75 1.86 5.43 2.67 11.04 3.19 16.56 0.3 5.51 0.64 10.98-0.11 17.05-0.76 5.9-2.4 11.92-5.27 17.54-2.78 5.66-6.81 10.92-11.75 15.18-5.1 4.41-10 7.13-15.54 9.89-10.97 5.19-23.09 7.61-34.9 7.67-11.89 0.06-23.25-2.02-34.22-5.56-6.21-1.86-10.79-4.34-15.84-6.9-4.93-2.57-9.7-5.43-14.32-8.55-9.21-6.25-17.78-13.76-24.74-22.76-6.7-9.02-11.69-20.45-10.2-31.37 3.51 10.28 10.21 17.83 18.01 23.88 7.72 6.17 16.58 10.88 25.59 15.17 4.51 2.14 9.15 4.05 13.79 5.89 4.59 1.64 9.58 3.77 13.61 4.47 9.28 2.22 18.92 3.66 28.13 3.5 9.25-0.03 18.26-1.6 26.63-4.86 4.07-1.51 8.53-3.83 11.72-5.95 3.33-2.26 6.28-5.16 8.77-8.62 5.08-7 7.8-15.83 9.47-26.16 1.06-4.99 1.67-9.99 1.75-14.95-0.01-2.44-0.1-4.97-0.79-7.26-0.61-2.28-1.71-4.7-4.26-5.71z" fill="#BF7C2F" /><path d="M576.02 240.99s-127.36 14.42-142.54-32.35c0 0-2.1 47.72 61.25 49.09 0 0 64.1 2.24 99.26-19.37l-17.97 2.63z" fill="#EAA642" /><path d="M433.48 208.64c6.36 6.77 13.92 10.28 21.54 13.48 7.67 3.09 15.57 5.54 23.75 7.65 8.17 2.1 16.5 4.01 25.02 6.02 8.52 2.09 17.18 3.96 26.05 7.28-8.94 2.89-18.09 4.12-27.29 4.31-9.2 0.1-18.48-0.91-27.56-3.28-9.06-2.35-17.97-6.23-25.8-11.93-3.96-2.74-7.37-6.43-10.37-10.19-2.7-4.03-5.2-8.48-5.34-13.34z" fill="#BF7C2F" /><path d="M399.2 100.12a19.308 19.308 0 0 0-4.11 6.79c-3.59 10.14-11.3 40.42 12.55 66.41 0 0-12.75-30.02-8.35-50.64 0 0 4.16-23.41 23.93-35.36-0.01 0.01-14.12 2.23-24.02 12.8z" fill="#EAA642" /><path d="M474.25 181.27c10.33 8.1 21.19 15.26 32.3 21.72 11.2 6.27 22.79 11.85 34.98 15.13 12.1 3.5 24.78 4.67 37.14 2.56 12.37-2.09 24.13-7.69 34.83-15.32-8.72 9.75-20.29 17.7-33.61 20.98-6.59 1.75-13.47 2.32-20.29 2.19-6.82-0.32-13.54-1.52-20.07-3.27-13.04-3.67-25.1-9.87-36.05-17.38-10.95-7.52-20.87-16.44-29.23-26.61zM428.74 212.27c2.97 24.72 21.79 44.15 46.32 47.59 2.57 0.36 7.53-3.2 8.4-3.08-24.39-3.42-42.95-22.82-45.89-47.32-0.06-0.51-9.02 1.24-8.83 2.81zM441.57 88.09c-17.81 18.25-21.51 44.66-8.91 66.78 1.02 1.79 6.19 0 5.37-1.44-12-21.07-9.35-46.86 7.85-64.48 2.17-2.23-3.08-2.13-4.31-0.86zM379.14 132.66c-5.47 19.28 2.48 39.29 19.47 49.61 5.11 3.11 9.76-4.91 4.67-8.01-13.5-8.21-19.52-23.91-15.2-39.15 1.63-5.75-7.32-8.19-8.94-2.45z" fill="#FFFFFF" /><path d="M591.98 171.35c-4.48 1.9-12.7 3.68-25.61 0.53-3.75-0.91-7.66 0.52-9.85 3.7-4.69 6.82-7.57 20.31 24.34 20.24 2.32-0.01 4.49-0.87 6.76-1.19 12.51-1.77 28.01-13.36 18.13-21.42-3.82-3.14-9.22-3.79-13.77-1.86z" fill="#FFFFFF" opacity=".82" /><path d="M268.255 558.66a44.93 17.74 0 1 0 89.86 0 44.93 17.74 0 1 0-89.86 0Z" fill="#E84A56" /><path d="M284.323 560.24a28.86 11.4 0 1 0 57.72 0 28.86 11.4 0 1 0-57.72 0Z" fill="#E95866" /><path d="M648.574 560.238a44.93 17.74 0 1 0 89.86 0 44.93 17.74 0 1 0-89.86 0Z" fill="#E84A56" /><path d="M664.644 560.238a28.86 11.4 0 1 0 57.72 0 28.86 11.4 0 1 0-57.72 0Z" fill="#E95866" /><path d="M278.97 304.46c0.02 14.8 0.03 29.59 0.05 44.39 0.01 11.93 15.84 11.93 15.82-0.02-0.02-14.8-0.03-29.59-0.05-44.39-0.01-11.93-15.84-11.93-15.82 0.02z" fill="#FFFFFF" /><path d="M282.659 373.47a5.97 3.51 90 1 0 7.02 0 5.97 3.51 90 1 0-7.02 0Z" fill="#FFFFFF" /><path d="M286.56 382.01c-3.64 0-6.39-3.79-6.39-8.83-0.01-5.04 2.73-8.85 6.37-8.85s6.39 3.8 6.39 8.84c0.01 5.03-2.73 8.83-6.37 8.84z m-0.01-11.62c-0.29 0.49-0.64 1.44-0.63 2.77s0.35 2.27 0.64 2.77c0.29-0.5 0.64-1.44 0.63-2.77s-0.34-2.27-0.64-2.77z" fill="#FFFFFF" /><path d="M676.21 324.47c-0.33 12.05 3.34 24.58 7.86 35.58 3.91 9.53 19.61 5.34 15.64-4.33-3.99-9.72-7.57-20.6-7.28-31.27 0.29-10.44-15.94-10.41-16.22 0.02z" fill="#FFFFFF" /><path d="M699.956664 381.441429a5.36 3.95 59.94 1 0 6.837461-3.957162 5.36 3.95 59.94 1 0-6.837461 3.957162Z" fill="#FFFFFF" /><path d="M300.92 640.49l-17.54-22.6c-0.13-0.17-0.1-0.42 0.07-0.55l5.82-4.52c0.17-0.13 0.42-0.1 0.55 0.07l17.54 22.6c0.13 0.17 0.1 0.42-0.07 0.55l-5.82 4.52c-0.17 0.13-0.42 0.1-0.55-0.07zM323.57 640.47l-17.54-22.6c-0.13-0.17-0.1-0.42 0.07-0.55l5.82-4.52c0.17-0.13 0.42-0.1 0.55 0.07l17.54 22.6c0.13 0.17 0.1 0.42-0.07 0.55l-5.82 4.52c-0.17 0.13-0.42 0.1-0.55-0.07z" fill="#FFFFFF" /><path d="M695.52 639.96l-17.54-22.6c-0.13-0.17-0.1-0.42 0.07-0.55l5.82-4.52c0.17-0.13 0.42-0.1 0.55 0.07l17.54 22.6c0.13 0.17 0.1 0.42-0.07 0.55l-5.82 4.52c-0.17 0.13-0.41 0.1-0.55-0.07zM718.17 639.94l-17.54-22.6c-0.13-0.17-0.1-0.42 0.07-0.55l5.82-4.52c0.17-0.13 0.42-0.1 0.55 0.07l17.54 22.6c0.13 0.17 0.1 0.42-0.07 0.55l-5.82 4.52c-0.17 0.13-0.42 0.1-0.55-0.07z" fill="#FFFFFF" /><path d="M745.16 254.28c13.83 7.22 26.88 21.01 29.72 39.67 1.78 11.71 16.41 6.74 14.63-4.94-3.49-22.9-19.57-41.79-36.7-50.74-8.89-4.64-16.62 11.33-7.65 16.01z" fill="#FBEFD2" /><path d="M802.323492 478.041817a3.27 8.72 10.347 1 0 3.132385-17.156391 3.27 8.72 10.347 1 0-3.132385 17.156391Z" fill="#FBEFD2" /><path d="M812.808057 484.228823a4.54 12.11 10.347 1 0 4.350136-23.826135 4.54 12.11 10.347 1 0-4.350136 23.826135Z" fill="#FBEFD2" /><path d="M398.56 554.18c-0.04-33.71 47.14-31.36 105.33-31.42s105.36-2.51 105.39 31.2-47.1 70.44-105.29 70.5-105.39-36.57-105.43-70.28z" fill="#6C3121" /><path d="M431.23 603.19s8.98-34.43 72.71-31.37l0.06 52.65c0-0.01-34.16 2.51-72.77-21.28zM576.72 603.03s-9.05-34.41-72.78-31.22l0.06 52.65s34.17 2.45 72.72-21.43z" fill="#E95866" /><path d="M464.98 602.12c1.26-1.35 83.81 3.8 35.41-11.33-3.81-1.19-3.77-7.05 0.07-8.1 16.45-4.49 46.17-7.58 71.35 17.03 1.79 1.75 1.57 4.82-0.36 6.37-8.08 6.46-31.15 20.01-77.8 14.11-0.01 0-42.13-3.57-28.67-18.08z" fill="#EE858F" /><path d="M364.112 475.824a29.76 12.57 0 1 0 59.52 0 29.76 12.57 0 1 0-59.52 0Z" fill="#E6B049" /><path d="M582.672 475.823a29.76 12.57 0 1 0 59.52 0 29.76 12.57 0 1 0-59.52 0Z" fill="#E6B049" /><path d="M392.98 445.16m-35.08 0a35.08 35.08 0 1 0 70.16 0 35.08 35.08 0 1 0-70.16 0Z" fill="#372622" /><path d="M612.9 446.23m-35.08 0a35.08 35.08 0 1 0 70.16 0 35.08 35.08 0 1 0-70.16 0Z" fill="#372622" /><path d="M793.99 317.94l-79.96 51.48a0.94 0.94 0 0 0-0.28 1.31l9.63 14.96c0.28 0.44 0.87 0.57 1.31 0.28l79.96-51.48a0.94 0.94 0 0 0 0.28-1.31l-9.63-14.96a0.951 0.951 0 0 0-1.31-0.28z" fill="#E84A56" /><path d="M835.83 250.55l12.58 19.57c0.39 0.61 1.06 0.98 1.78 1.01l23.25 0.73c1.82 0.06 2.78 2.17 1.63 3.58l-14.72 18.01c-0.46 0.56-0.61 1.31-0.41 2l6.49 22.34c0.51 1.75-1.21 3.32-2.9 2.66l-21.68-8.44c-0.67-0.26-1.43-0.18-2.03 0.23l-19.24 13.08c-1.5 1.02-3.53-0.12-3.43-1.94l1.33-23.23c0.04-0.72-0.28-1.42-0.85-1.86l-18.38-14.26c-1.44-1.12-0.97-3.39 0.79-3.86l22.5-5.92a2.2 2.2 0 0 0 1.51-1.38l7.88-21.89c0.6-1.7 2.91-1.96 3.9-0.43z" fill="#E84A56" /><path d="M835.73 260.62l9.67 15.04c0.15 0.23 0.4 0.37 0.67 0.38l17.87 0.56c0.69 0.02 1.05 0.82 0.62 1.36l-11.31 13.84c-0.17 0.21-0.23 0.5-0.15 0.76l4.99 17.17c0.19 0.66-0.46 1.26-1.1 1.01l-16.66-6.48a0.818 0.818 0 0 0-0.77 0.09l-14.79 10.05c-0.57 0.39-1.34-0.05-1.3-0.73l1.02-17.85c0.02-0.27-0.1-0.54-0.32-0.7l-14.12-10.96c-0.54-0.42-0.37-1.29 0.3-1.46l17.29-4.55c0.26-0.07 0.48-0.26 0.57-0.52l6.06-16.82a0.81 0.81 0 0 1 1.46-0.19z" fill="#F3D860" /><path d="M327.93 705.99s-10.62 6.94-10.73 21.33l-121.42 0.13 0.12 114.97s2.71 17.13 33.81 17.1l275.87 0.42 293.98-0.47s23.76-3.12 27.1-22.3l-0.12-110.19-129.89 0.14s-11.98-19.39-19.11-21.5-349.61 0.37-349.61 0.37z" fill="#3F6FAE" /><path d="M421.75 703.73l-15.14 19.82c-2.19 2.86 1.84 5.97 7.72 5.97l191.4-0.2c5.43-0.01 9.4-2.69 8.05-5.44l-9.69-19.79c-0.94-1.93-4.26-3.27-8.06-3.27l-166.57 0.17c-3.39 0-6.44 1.09-7.71 2.74z" fill="#F3D860" /><path d="M414.33 732.65c-5.1 0-9.36-1.97-10.87-5.02-0.98-1.98-0.74-4.17 0.66-6l15.13-19.82c1.88-2.44 5.79-3.97 10.21-3.97l166.56-0.17h0.02c5.1 0 9.36 1.97 10.86 5.02l9.7 19.8c0.87 1.78 0.75 3.77-0.3 5.47-1.73 2.76-5.77 4.49-10.57 4.49l-191.4 0.2z m-5.13-7.23c0.43 0 2.15 0.95 5.13 0.95h0.01l191.39-0.2c3.26 0 5.01-1.15 5.24-1.54l-9.7-19.17c-0.25-0.43-2.13-1.5-5.23-1.5h-0.02l-166.56 0.17c-2.76 0-4.75 0.9-5.23 1.51l-15.13 19.82c0.03-0.03 0.06-0.04 0.1-0.04z" fill="#231815" /><path d="M894.05 577.27l13.99 4.91c-18.83 53.63-63.21 67.9-65.36 68.56-0.01 0-0.01 0-0.02 0.01l-46.46 14.29-4.36-14.17 46.47-14.29c1.6-0.51 39.42-12.84 55.74-59.31z" fill="#372622" /><path d="M364.58 764.6m-21.73 0a21.73 21.73 0 1 0 43.46 0 21.73 21.73 0 1 0-43.46 0Z" fill="#203462" /><path d="M364.57 790.52c-14.27 0-25.9-11.61-25.92-25.89-0.01-14.29 11.61-25.93 25.89-25.94h0.03c14.27 0 25.9 11.61 25.92 25.89 0.01 6.92-2.68 13.43-7.57 18.33-4.89 4.9-11.39 7.6-18.31 7.61h-0.04z m0-43.46h-0.02c-9.68 0.01-17.53 7.89-17.53 17.56 0.02 9.66 7.88 17.52 17.54 17.52h0.02c4.69 0 9.09-1.84 12.4-5.15 3.31-3.32 5.14-7.72 5.13-12.41-0.01-9.66-7.88-17.52-17.54-17.52z" fill="#372622" /><path d="M658 764.3m-21.73 0a21.73 21.73 0 1 0 43.46 0 21.73 21.73 0 1 0-43.46 0Z" fill="#203462" /><path d="M658 790.21c-14.27 0-25.9-11.61-25.92-25.89-0.01-14.29 11.61-25.93 25.89-25.95h0.03c14.27 0 25.9 11.61 25.92 25.89 0.01 6.92-2.68 13.43-7.57 18.33-4.89 4.9-11.39 7.6-18.31 7.61-0.03 0.01-0.04 0.01-0.04 0.01z m0-43.46h-0.02c-9.68 0.01-17.53 7.89-17.53 17.56 0.02 9.66 7.88 17.52 17.54 17.52h0.02c4.69 0 9.09-1.84 12.4-5.15 3.31-3.32 5.14-7.72 5.13-12.41-0.02-9.66-7.89-17.52-17.54-17.52z" fill="#372622" /><path d="M771.3 743.713l4.59-0.005 0.04 38.41-4.59 0.005zM771.34 789.903l4.59-0.005 0.04 38.41-4.59 0.005z" fill="#F3D860" /><path d="M232.36 746.483l4.59-0.005 0.04 38.41-4.59 0.005zM232.41 792.673l4.59-0.005 0.04 38.41-4.59 0.005z" fill="#F3D860" /><path d="M583.45 746.12c0.05 45.51-32.18 82.43-71.97 82.48-39.8 0.04-72.1-36.82-72.15-82.33l144.12-0.15z" fill="#203462" /><path d="M511.4 832.77c-20.44 0-39.63-9.05-54.04-25.5-14.3-16.32-22.18-37.98-22.2-61l-0.01-4.19 152.49-0.16 0.01 4.19c0.02 23.02-7.82 44.7-22.07 61.04-14.4 16.5-33.61 25.6-54.08 25.62h-0.1z m-67.78-82.32c0.91 19.42 7.94 37.5 20.03 51.3 12.8 14.61 29.75 22.65 47.75 22.65h0.07c18.03-0.02 35-8.1 47.78-22.75 12.06-13.82 19.06-31.92 19.92-51.34l-135.55 0.14z" fill="#231815" /><path d="M485.66 769.47c0 1.78-0.32 3.42-0.95 4.92-0.64 1.5-1.54 2.79-2.7 3.87-1.1 1.02-2.33 1.78-3.7 2.28-1.37 0.5-2.83 0.74-4.38 0.74-1.53 0-2.98-0.23-4.33-0.7-1.36-0.47-2.56-1.18-3.62-2.12-1.19-1.06-2.12-2.36-2.8-3.89-0.68-1.54-1.02-3.22-1.02-5.08 0-1.72 0.28-3.29 0.84-4.71 0.56-1.41 1.41-2.69 2.55-3.83 1.04-1.04 2.27-1.85 3.7-2.4 1.42-0.56 2.96-0.84 4.63-0.84 1.63 0 3.14 0.25 4.54 0.77 1.39 0.51 2.62 1.27 3.68 2.27 1.19 1.12 2.08 2.43 2.68 3.92 0.58 1.49 0.88 3.09 0.88 4.8z m-5.66 0.18c0-1.12-0.19-2.24-0.57-3.34-0.38-1.1-0.96-2.02-1.73-2.73a5.48 5.48 0 0 0-1.69-1.1c-0.63-0.27-1.34-0.4-2.12-0.4-0.77 0-1.47 0.14-2.12 0.41-0.64 0.27-1.24 0.68-1.78 1.21-0.69 0.69-1.22 1.55-1.61 2.59a9.283 9.283 0 0 0-0.57 3.21c0 1.21 0.19 2.32 0.58 3.33s0.94 1.86 1.68 2.55c0.49 0.46 1.06 0.84 1.72 1.11 0.66 0.28 1.37 0.42 2.13 0.42 0.74 0 1.44-0.13 2.09-0.4 0.65-0.27 1.23-0.65 1.76-1.15 0.68-0.64 1.22-1.47 1.62-2.48 0.41-1.03 0.61-2.1 0.61-3.23zM510.77 758.28c0 2.08 0 3.71-0.02 4.91-0.02 1.2-0.02 2.3-0.02 3.3 0 1.27 0.01 2.36 0.01 3.27 0.01 0.92 0.01 1.7 0.01 2.36 0 1.52-0.25 2.83-0.77 3.94-0.52 1.1-1.22 2.02-2.11 2.74-1.01 0.81-2.11 1.41-3.29 1.78-1.18 0.38-2.56 0.57-4.14 0.57-1.76 0-3.23-0.21-4.43-0.64-1.19-0.42-2.22-1.01-3.09-1.75a7.313 7.313 0 0 1-2.1-2.79c-0.48-1.09-0.72-2.4-0.72-3.92 0-0.66 0-1.44 0.01-2.36 0-0.92 0.01-2.01 0-3.28 0-1.1-0.01-2.21-0.03-3.32-0.02-1.11-0.03-2.72-0.03-4.8l5.52-0.01c-0.01 0.94-0.02 2.12-0.03 3.53-0.01 1.41-0.01 3-0.01 4.76 0 0.86 0 1.71 0.01 2.56 0.01 0.85 0.01 1.73 0.01 2.62 0 1.62 0.44 2.85 1.33 3.68 0.88 0.84 2.07 1.25 3.56 1.25 1.59 0 2.79-0.41 3.62-1.22 0.83-0.81 1.24-2.05 1.24-3.72v-2.69c0-0.89 0.01-1.73 0.01-2.49 0-1.79-0.01-3.39-0.03-4.81-0.02-1.41-0.03-2.58-0.03-3.49l5.52 0.02zM537.89 780.56l-5.52 0.01c0-0.63 0.01-1.7 0.02-3.21 0.02-1.51 0.02-3.51 0.02-6.02-0.38 0-1.18 0-2.4-0.01h-2.98c-0.84 0-1.8 0-2.87 0.01s-1.76 0.01-2.07 0.01c0 2.33 0.01 4.26 0.02 5.78 0.01 1.53 0.03 2.67 0.04 3.45l-5.52 0.01c0.01-0.8 0.02-2.01 0.04-3.62 0.01-1.62 0.02-4.44 0.02-8.45 0-1.27-0.01-2.8-0.03-4.6-0.02-1.8-0.03-3.68-0.05-5.63l5.52-0.01c0 1.6 0 3.09-0.02 4.46-0.01 1.38-0.02 2.74-0.02 4.07h1.88c0.94 0 1.97 0.01 3.08 0.01 0.93 0 1.97-0.01 3.12-0.01 1.15-0.01 1.9-0.01 2.24-0.01 0-1.28-0.01-2.63-0.03-4.07-0.02-1.43-0.03-2.92-0.03-4.46l5.52-0.01c-0.02 1.87-0.03 3.87-0.04 6-0.01 2.12-0.01 3.85-0.01 5.2 0 2.82 0.01 5.19 0.03 7.09 0.01 1.89 0.03 3.24 0.04 4.01zM560.28 780.54c-0.4 0-1.51 0-3.32-0.01-1.81-0.01-3.61-0.02-5.4-0.01-1.54 0-3.05 0.01-4.51 0.03-1.47 0.01-2.53 0.02-3.2 0.02 0.01-0.59 0.02-1.87 0.04-3.84 0.01-1.97 0.02-4.47 0.02-7.49 0-1.28-0.01-2.91-0.02-4.89-0.01-1.98-0.03-4-0.06-6.05 0.76 0 1.83 0 3.23 0.01h4.21c1.92 0 3.8 0 5.65-0.01 1.84-0.01 2.89-0.01 3.13-0.01v4.11c-0.19 0-0.92 0-2.18-0.01-1.27-0.01-2.54-0.01-3.82-0.01-0.75 0-1.61 0-2.6 0.01s-1.77 0.01-2.33 0.01c0 0.84 0 1.72-0.02 2.64-0.01 0.93-0.01 1.76-0.01 2.51h2.21c0.89 0 1.63 0.01 2.21 0.01 1.43 0 2.77-0.01 4.02-0.02 1.25-0.02 2.05-0.02 2.39-0.02v3.32c-0.22 0-1.08 0-2.58-0.01s-2.75-0.02-3.76-0.02c-0.57 0-1.31 0.01-2.23 0.01-0.92 0.01-1.67 0.01-2.26 0.01 0 1.3 0.01 2.41 0.01 3.34s0.01 1.68 0.03 2.28c0.67 0.01 1.55 0.01 2.66 0.02s2.12 0.01 3.02 0.01c1.27 0 2.41-0.01 3.45-0.02 1.03-0.01 1.7-0.02 2.02-0.02v4.1z" fill="#EBD262" /><path d="M479.56 760.17m-4.19 0a4.19 4.19 0 1 0 8.38 0 4.19 4.19 0 1 0-8.38 0Z" fill="#FFFFFF" /><path d="M479.56 760.17m-2.71 0a2.71 2.71 0 1 0 5.42 0 2.71 2.71 0 1 0-5.42 0Z" fill="#4ABAB0" /><path d="M611.14 998.12c0.02 14.39 21.4 8.82 47.79 8.79 26.39-0.03 47.78 5.5 47.77-8.89s-21.42-26.04-47.81-26.01c-26.39 0.03-47.77 11.72-47.75 26.11z" fill="#372622" /><path d="M405.68 997.79c0.02 14.39-21.38 8.86-47.77 8.89-26.39 0.03-47.77 5.6-47.79-8.79-0.02-14.39 21.36-26.08 47.75-26.11s47.79 11.62 47.81 26.01z" fill="#372622" /><path d="M151.804583 791.624503a27.72 32.02 44.813 1 0 45.135083-45.43067 27.72 32.02 44.813 1 0-45.135083 45.43067Z" fill="#372622" /><path d="M202.87 734.18c10.95 4.43 15.09 20.37 5.11 29.81-9.73 9.19-21.8 14.89-31.75 8.81s-13.47-21.1-4.29-30.83c10.09-10.71 19.77-12.3 30.93-7.79z" fill="#372622" /><path d="M870.86 561.75s16.72 5.77 7.17 19.69l-10.75 6.69s33.24 29.69 59.12 3.6c0 0 37.62-57.37-45.38-50.79-0.01-0.01-25.09 6.94-10.16 20.81z" fill="#372622" /><path d="M897.72 564.32l-12.82-2.79a0.692 0.692 0 0 1-0.53-0.83l13.54-62.13c0.08-0.38 0.45-0.61 0.83-0.53l12.82 2.79c0.38 0.08 0.61 0.45 0.53 0.83l-13.54 62.13c-0.08 0.38-0.45 0.62-0.83 0.53z" fill="#372622" /><path d="M906.77 566.5l-12.06-5.17a0.698 0.698 0 0 1-0.37-0.91l25.05-58.45c0.15-0.35 0.56-0.52 0.91-0.37l12.06 5.17c0.35 0.15 0.52 0.56 0.37 0.91l-25.05 58.45a0.69 0.69 0 0 1-0.91 0.37z" fill="#372622" /><path d="M898.96 564.1l-5.73-11.8a0.698 0.698 0 0 1 0.32-0.93l57.2-27.79c0.35-0.17 0.76-0.02 0.93 0.32l5.73 11.8c0.17 0.35 0.02 0.76-0.32 0.93l-57.2 27.79a0.69 0.69 0 0 1-0.93-0.32z" fill="#372622" /></svg>