<?xml version="1.0" standalone="no"?><!DOCTYPE svg PUBLIC "-//W3C//DTD SVG 1.1//EN" "http://www.w3.org/Graphics/SVG/1.1/DTD/svg11.dtd"><svg class="icon" width="200px" height="200.00px" viewBox="0 0 1024 1024" version="1.1" xmlns="http://www.w3.org/2000/svg"><path fill="red" d="M830.6 400.47499971c-81.86249971-34.875-191.85000029-57.375-309.375-63.5625-18.74999971-1.125-37.0125-1.50000029-54.37500029-1.49999942 86.92499971-106.12500029 180.07499971-177.37499971 241.38750058-179.62500058 12.07500029-0.48750029 22.31250029 2.06250029 30.4875 7.35000029 26.47500029 17.17499971 33.93749971 66.30000029 20.43749971 134.62499971-1.50000029 9.37500029 4.5 18.48750029 13.5 20.25 9.37500029 1.87499971 18.37500029-4.12499971 20.25-13.5 16.875-85.5 4.5-144.225-35.25000029-170.17499971-14.24999971-9.29999971-31.5-13.68749971-50.625-12.97500029-76.87500029 2.88749971-185.24999971 86.24999971-284.625 214.50000058-43.27499971 1.31249971-83.99999971 4.87500029-121.19999942 10.76249971-24.22500029-108.63749971-14.625-186.6375 22.275-205.38749971 5.175-2.73750029 10.6875-4.12499971 17.13749942-4.65000029 26.13750029-2.025 62.25000029 14.81249971 101.62500029 47.62500029 7.27499971 6.00000029 18.225 5.24999971 24.22500029-2.25a17.17499971 17.17499971 0 0 0-2.25-24.1875C416.97500029 118.62500029 373.4 99.50000029 337.77500029 102.12499971a84.15 84.15 0 0 0-30.11250058 8.25000029c-44.62499971 22.76250029-62.62499971 87.26249971-51.37499971 181.42499971 2.62500029 19.50000029 6.00000029 39.825 10.87499971 60.75C144.125 377.15000029 65.75000029 426.42500029 62.37500029 488.44999971c-2.25 43.875 32.43750029 85.65000029 100.49999942 120.825a17.25000029 17.25000029 0 1 0 15.75-30.6C124.25000029 550.7 95.00000029 519.12500029 96.7625 490.24999971c1.87499971-40.5 66.44999971-82.125 178.49999971-104.24999971 10.125 37.27500029 23.24999971 76.20000029 39.375 115.875-38.17500029 70.80000029-65.85000029 140.5125-80.13749942 202.5-20.99999971 92.43749971-9.74999971 158.24999971 32.24999971 185.55000029 13.5 8.775 29.25 13.12499971 46.76249971 13.12499971 35.06249971 0 77.5125-17.25000029 125.51250058-51.45000029a17.17499971 17.17499971 0 1 0-19.87500058-27.97499971c-57.89999971 41.36249971-106.65 55.19999971-133.57499942 37.61250029-28.50000029-18.5625-34.72499971-72.86249971-17.25000029-149.10000029 11.99999971-51.975 34.01250029-109.87499971 64.05000029-169.49999971 7.49999971 16.425 15.37499971 32.85 23.625 49.23749971 53.4375 104.85 118.87499971 196.01250029 184.12499971 256.68749971 51.975 48.375 100.27500029 73.61250029 140.0625 73.61250029 13.12499971 0 25.49999971-2.8125 36.60000029-8.36250029 42.93749971-21.9375 61.49999971-82.87499971 52.425-171.5625-8.39999971-82.98749971-39.75000029-184.12499971-88.27500058-284.99999942a17.25000029 17.25000029 0 1 0-31.12499971 14.85c100.87499971 210.07500029 108 382.12499971 51.37499971 410.99999942-59.625 30.4875-203.4-88.3125-314.62499971-306.74999971-12.75000029-24.56250029-23.88750029-48.75000029-33.75-72.37500029 12.75000029-22.79999971 26.25000029-45.74999971 41.0625-68.625 14.81249971-22.65000029 30.22499971-44.55 45.9-65.43749971h14.77500029c20.25 0 42.22500029 0.37500029 65.025 1.8 244.87499971 12.86250029 411.56250029 96.00000029 408.15 162.52499971-1.50000029 28.6875-34.65 57.67499971-90.93750029 79.50000058a17.39999971 17.39999971 0 0 0-9.74999971 22.34999971 17.06249971 17.06249971 0 0 0 22.23749971 9.82500029c71.4375-27.74999971 110.62500029-65.85000029 112.87500029-109.87500058 2.62500029-49.87500029-43.875-97.875-131.25000058-135v-0.37499942zM365.00000029 416.375c-10.125 15.56250029-19.50000029 31.01249971-28.65000058 46.64999971a887.24999971 887.24999971 0 0 1-27.1125-83.06249942c26.73749971-4.12499971 55.6875-7.12500029 86.625-9-10.50000029 14.625-20.77499971 29.77499971-30.74999942 45.37499942v-0.37499942z"  /><path fill="blue" d="M512.18749971 512m-51.56249942 0a51.56250029 51.56250029 0 1 0 103.12499971 0 51.56250029 51.56250029 0 1 0-103.12499971 0Z"  /></svg>